<svg width="151" height="46" viewBox="0 0 151 46" fill="none" xmlns="http://www.w3.org/2000/svg">
<path d="M50.2136 32.8061H59.103C63.7762 32.8061 66.2652 30.3679 66.2652 27.056C66.2652 23.9778 64.0607 22.1186 61.6936 22.0069V21.8037C63.8575 21.316 65.4525 19.782 65.4525 17.3336C65.4525 14.2147 63.1362 12 58.5442 12H50.2136V32.8061ZM54.6126 29.2098V23.6831H58.3004C60.4135 23.6831 61.724 24.9022 61.724 26.6192C61.724 28.1837 60.6573 29.2098 58.1988 29.2098H54.6126ZM54.6126 20.7065V15.5557H57.955C59.9055 15.5557 61.0129 16.5615 61.0129 18.0651C61.0129 19.7109 59.6719 20.7065 57.8737 20.7065H54.6126Z" fill="#8CB7F5"/>
<path d="M68.5182 32.8061H72.846V23.9778C72.846 22.0577 74.248 20.737 76.1579 20.737C76.7573 20.737 77.5802 20.8385 77.9866 20.9706V17.1304C77.6005 17.039 77.0621 16.978 76.6252 16.978C74.8779 16.978 73.4454 17.994 72.8765 19.9242H72.7139V17.2015H68.5182V32.8061Z" fill="#8CB7F5"/>
<path d="M83.6987 33.1008C86.0049 33.1008 87.4983 32.095 88.2602 30.6422H88.3822V32.8061H92.4865V22.2812C92.4865 18.5629 89.3371 16.9984 85.8627 16.9984C82.1241 16.9984 79.6655 18.7864 79.0661 21.631L83.0689 21.9561C83.3635 20.9198 84.288 20.1579 85.8423 20.1579C87.3154 20.1579 88.1587 20.8995 88.1587 22.1796V22.2405C88.1587 23.2463 87.0919 23.3784 84.3794 23.6425C81.291 23.927 78.5175 24.9632 78.5175 28.4478C78.5175 31.5362 80.7221 33.1008 83.6987 33.1008ZM84.9382 30.1139C83.6073 30.1139 82.6523 29.4942 82.6523 28.3056C82.6523 27.0865 83.6581 26.4871 85.182 26.2737C86.1268 26.1417 87.671 25.9182 88.1891 25.5728V27.2287C88.1891 28.8644 86.838 30.1139 84.9382 30.1139Z" fill="#8CB7F5"/>
<path d="M99.6438 23.7847C99.654 21.7732 100.853 20.5947 102.6 20.5947C104.337 20.5947 105.384 21.7326 105.374 23.6425V32.8061H109.701V22.8704C109.701 19.2334 107.568 16.9984 104.317 16.9984C102.001 16.9984 100.324 18.1362 99.6235 19.9547H99.4406V17.2015H95.316V32.8061H99.6438V23.7847Z" fill="#8CB7F5"/>
<path d="M118.334 33.0601C120.854 33.0601 122.164 31.6074 122.764 30.307H122.947V32.8061H127.214V12H122.896V19.8226H122.764C122.185 18.5527 120.935 16.9984 118.324 16.9984C114.901 16.9984 112.005 19.6601 112.005 25.0242C112.005 30.246 114.779 33.0601 118.334 33.0601ZM119.706 29.6161C117.583 29.6161 116.424 27.7265 116.424 25.0038C116.424 22.3015 117.562 20.4423 119.706 20.4423C121.809 20.4423 122.987 22.2202 122.987 25.0038C122.987 27.7875 121.789 29.6161 119.706 29.6161Z" fill="#8CB7F5"/>
<g opacity="0.8">
<path fill-rule="evenodd" clip-rule="evenodd" d="M14.4674 2.91309H37.1848C40.9487 2.91309 44 6.28555 44 10.4457V35.5544C44 39.7145 40.9487 43.087 37.1848 43.087H14.4674C10.7035 43.087 7.65218 39.7145 7.65218 35.5544L7.65218 10.4457C7.65218 6.28555 10.7035 2.91309 14.4674 2.91309Z" fill="#0D6EFD" fill-opacity="0.2"/>
<path fill-rule="evenodd" clip-rule="evenodd" d="M8.13043 2.91309H32.0435C36.0055 2.91309 39.2174 6.28555 39.2174 10.4457V35.5544C39.2174 39.7145 36.0055 43.087 32.0435 43.087H8.13043C4.16839 43.087 0.956519 39.7145 0.95652 35.5544L0.95652 10.4457C0.95652 6.28555 4.16839 2.91309 8.13043 2.91309Z" fill="#0D6EFD"/>
<g opacity="0.7">
<path opacity="0.3" fill-rule="evenodd" clip-rule="evenodd" d="M15.2902 19.356H14.3096C14.2591 19.356 14.1842 19.4263 14.1813 19.4727L13.4589 31.1474L26.9548 31.1449L26.2253 19.4727C26.2225 19.428 26.1457 19.356 26.0969 19.356H25.1164V21.3212C25.1164 21.8639 24.6765 22.3038 24.1338 22.3038C23.5911 22.3038 23.1511 21.8639 23.1511 21.3212V19.356H17.2554V21.3212C17.2554 21.8639 16.8155 22.3038 16.2728 22.3038C15.7301 22.3038 15.2902 21.8639 15.2902 21.3212V19.356Z" fill="white"/>
<path fill-rule="evenodd" clip-rule="evenodd" d="M20.2033 12.478C22.9153 12.478 25.1164 14.6794 25.1164 17.3888L26.0969 17.3911C27.1834 17.3911 28.1192 18.2701 28.1867 19.3505L28.9244 31.1537C28.9921 32.2358 28.1698 33.1131 27.0865 33.1131H13.3201C12.2374 33.1131 11.4146 32.2341 11.4821 31.1537L12.2198 19.3505C12.2875 18.2684 13.2213 17.3911 14.3096 17.3911H15.2902C15.2902 14.6779 17.493 12.478 20.2033 12.478ZM23.1511 17.3912C23.1511 15.7648 21.8299 14.4434 20.2033 14.4434C18.5778 14.4434 17.2554 15.764 17.2554 17.3889L23.1511 17.3912ZM15.2902 19.3563H14.3096C14.2591 19.3563 14.1842 19.4266 14.1813 19.4731L13.4589 31.1478L26.9548 31.1452L26.2253 19.4731C26.2225 19.4284 26.1457 19.3563 26.0969 19.3563H25.1164V21.3216C25.1164 21.8643 24.6765 22.3042 24.1338 22.3042C23.5911 22.3042 23.1511 21.8643 23.1511 21.3216V19.3563H17.2554V21.3216C17.2554 21.8643 16.8155 22.3042 16.2728 22.3042C15.7301 22.3042 15.2902 21.8643 15.2902 21.3216V19.3563Z" fill="white"/>
</g>
</g>
</svg>
